<svg width="177" height="32" viewBox="0 0 177 32" fill="none" xmlns="http://www.w3.org/2000/svg">
<g clip-path="url(#clip0_9_5)">
<path d="M0 23.63L2.703 28.302C2.97176 28.8369 3.38381 29.2867 3.89322 29.6012C4.40262 29.9157 4.98935 30.0825 5.588 30.083H23.531L19.807 23.63H0ZM32 23.661C31.9986 23.0404 31.8196 22.4331 31.484 21.911L20.968 3.63502C20.6938 3.11584 20.2831 2.68135 19.7802 2.37842C19.2772 2.07549 18.7011 1.91561 18.114 1.91602H12.557L28.797 30.051L31.36 25.619C31.86 24.77 32.001 24.395 32.001 23.661H32ZM17.161 19.047L9.906 6.47902L2.646 19.047H17.161Z" fill="#00CC6A"/>
</g>
<path d="M55.18 22.5H52.32L51.22 19.28H46.16L45.06 22.5H42.24L47.06 9.3H50.36L55.18 22.5ZM46.78 17.24H50.6L48.68 11.48L46.78 17.24ZM62.958 9.3C64.4513 9.3 65.6246 9.66 66.478 10.38C67.3313 11.1 67.758 12.0667 67.758 13.28C67.758 14.5733 67.3313 15.5667 66.478 16.26C65.6246 16.94 64.458 17.28 62.978 17.28L62.698 17.44H59.858V22.5H57.138V9.3H62.958ZM62.638 15.34C63.4113 15.34 63.9846 15.1867 64.358 14.88C64.7446 14.56 64.938 14.0733 64.938 13.42C64.938 12.7667 64.7446 12.2867 64.358 11.98C63.9846 11.66 63.4113 11.5 62.638 11.5H59.858V15.34H62.638ZM64.258 15.92L68.538 22.5H65.438L61.898 16.72L64.258 15.92ZM80.9373 9.3V11.52H76.5173V22.5H73.7573V11.52H69.3173V9.3H80.9373Z" fill="white"/>
<path d="M85.2327 9.3V22.5H83.6327V9.3H85.2327ZM93.7906 9.1C94.9506 9.1 95.9506 9.34 96.7906 9.82C97.6306 10.2867 98.3306 10.98 98.8906 11.9L97.5506 12.94C97.0573 12.0867 96.4973 11.4867 95.8706 11.14C95.2573 10.78 94.5106 10.6 93.6306 10.6C92.924 10.6 92.3373 10.7 91.8706 10.9C91.4173 11.1 91.084 11.3667 90.8706 11.7C90.6573 12.02 90.5506 12.3867 90.5506 12.8C90.5506 13.2667 90.6973 13.68 90.9906 14.04C91.284 14.3867 91.8706 14.66 92.7506 14.86L95.6106 15.5C96.8773 15.78 97.7573 16.2067 98.2506 16.78C98.7573 17.34 99.0106 18.04 99.0106 18.88C99.0106 19.6267 98.7973 20.2933 98.3706 20.88C97.9573 21.4533 97.3706 21.9 96.6106 22.22C95.8506 22.54 94.9573 22.7 93.9306 22.7C92.9706 22.7 92.124 22.5733 91.3906 22.32C90.6706 22.0533 90.0506 21.7 89.5306 21.26C89.0106 20.82 88.584 20.3267 88.2506 19.78L89.6506 18.64C89.904 19.1467 90.2306 19.5933 90.6306 19.98C91.0306 20.3667 91.5106 20.6667 92.0706 20.88C92.644 21.0933 93.2973 21.2 94.0306 21.2C94.7106 21.2 95.2973 21.12 95.7906 20.96C96.2973 20.7867 96.684 20.54 96.9506 20.22C97.2173 19.8867 97.3506 19.4867 97.3506 19.02C97.3506 18.5933 97.2106 18.2133 96.9306 17.88C96.6506 17.5333 96.124 17.2733 95.3506 17.1L92.2506 16.4C91.4373 16.2133 90.7773 15.96 90.2706 15.64C89.7773 15.3067 89.4173 14.92 89.1906 14.48C88.9773 14.0267 88.8706 13.54 88.8706 13.02C88.8706 12.3133 89.064 11.6667 89.4506 11.08C89.8506 10.48 90.4173 10 91.1506 9.64C91.8973 9.28 92.7773 9.1 93.7906 9.1ZM111.038 9.3V10.8H106.438V22.5H104.838V10.8H100.238V9.3H111.038ZM122.551 22.5H120.851L119.451 18.84H113.471L112.071 22.5H110.391L115.531 9.3H117.431L122.551 22.5ZM114.051 17.34H118.871L116.451 10.84L114.051 17.34ZM129.318 9.1C130.478 9.1 131.478 9.34 132.318 9.82C133.158 10.2867 133.858 10.98 134.418 11.9L133.078 12.94C132.585 12.0867 132.025 11.4867 131.398 11.14C130.785 10.78 130.038 10.6 129.158 10.6C128.451 10.6 127.865 10.7 127.398 10.9C126.945 11.1 126.611 11.3667 126.398 11.7C126.185 12.02 126.078 12.3867 126.078 12.8C126.078 13.2667 126.225 13.68 126.518 14.04C126.811 14.3867 127.398 14.66 128.278 14.86L131.138 15.5C132.405 15.78 133.285 16.2067 133.778 16.78C134.285 17.34 134.538 18.04 134.538 18.88C134.538 19.6267 134.325 20.2933 133.898 20.88C133.485 21.4533 132.898 21.9 132.138 22.22C131.378 22.54 130.485 22.7 129.458 22.7C128.498 22.7 127.651 22.5733 126.918 22.32C126.198 22.0533 125.578 21.7 125.058 21.26C124.538 20.82 124.111 20.3267 123.778 19.78L125.178 18.64C125.431 19.1467 125.758 19.5933 126.158 19.98C126.558 20.3667 127.038 20.6667 127.598 20.88C128.171 21.0933 128.825 21.2 129.558 21.2C130.238 21.2 130.825 21.12 131.318 20.96C131.825 20.7867 132.211 20.54 132.478 20.22C132.745 19.8867 132.878 19.4867 132.878 19.02C132.878 18.5933 132.738 18.2133 132.458 17.88C132.178 17.5333 131.651 17.2733 130.878 17.1L127.778 16.4C126.965 16.2133 126.305 15.96 125.798 15.64C125.305 15.3067 124.945 14.92 124.718 14.48C124.505 14.0267 124.398 13.54 124.398 13.02C124.398 12.3133 124.591 11.6667 124.978 11.08C125.378 10.48 125.945 10 126.678 9.64C127.425 9.28 128.305 9.1 129.318 9.1ZM146.658 9.3L141.938 17.34V22.5H140.338V17.34L135.618 9.3H137.518L140.078 13.82L141.138 15.7L142.198 13.82L144.758 9.3H146.658ZM153.953 9.1C155.206 9.1 156.286 9.38 157.193 9.94C158.113 10.4867 158.819 11.2667 159.313 12.28C159.819 13.2933 160.073 14.5 160.073 15.9C160.073 17.3 159.819 18.5067 159.313 19.52C158.819 20.5333 158.113 21.32 157.193 21.88C156.286 22.4267 155.206 22.7 153.953 22.7C152.699 22.7 151.613 22.4267 150.693 21.88C149.786 21.32 149.079 20.5333 148.573 19.52C148.079 18.5067 147.833 17.3 147.833 15.9C147.833 14.5 148.079 13.2933 148.573 12.28C149.079 11.2667 149.786 10.4867 150.693 9.94C151.613 9.38 152.699 9.1 153.953 9.1ZM153.953 10.6C153.046 10.6 152.259 10.8133 151.593 11.24C150.926 11.6533 150.413 12.26 150.053 13.06C149.693 13.8467 149.513 14.7933 149.513 15.9C149.513 17.0067 149.693 17.96 150.053 18.76C150.413 19.5467 150.926 20.1533 151.593 20.58C152.259 20.9933 153.046 21.2 153.953 21.2C154.873 21.2 155.659 20.9933 156.313 20.58C156.979 20.1533 157.493 19.5467 157.853 18.76C158.213 17.96 158.393 17.0067 158.393 15.9C158.393 14.7933 158.213 13.8467 157.853 13.06C157.493 12.26 156.979 11.6533 156.313 11.24C155.659 10.8133 154.873 10.6 153.953 10.6ZM173.954 9.3V22.5H171.974L166.454 13.66L165.054 11.18H165.034L165.114 13.18V22.5H163.594V9.3H165.574L171.074 18.1L172.494 20.64H172.514L172.434 18.62V9.3H173.954Z" fill="#CCCCCC"/>
<defs>
<clipPath id="clip0_9_5">
<rect width="32" height="32" fill="white"/>
</clipPath>
</defs>
</svg>
